<svg width="1375" height="82" viewBox="0 0 1375 82" fill="none" xmlns="http://www.w3.org/2000/svg">
<path d="M26.2084 79.1453C25.3435 70.7984 18.688 64.1435 10.3028 63.2411V26.6199C18.6504 25.7551 25.3059 19.1002 26.2084 10.7157H1356.97C1357.84 19.0626 1364.49 25.7175 1372.88 26.6199V63.2411C1364.53 64.1059 1357.87 70.7608 1356.97 79.1453H26.2084Z" fill="#342F2F"/>
<path d="M1355.32 12.6332C1356.86 20.529 1363.06 26.7328 1370.96 28.2743V61.6619C1363.06 63.2034 1356.86 69.4073 1355.32 77.303H27.8253C26.2836 69.4073 20.0793 63.2034 12.183 61.6619V28.2743C20.0793 26.7328 26.2836 20.529 27.8253 12.6332H1355.32ZM1358.74 8.87337H24.4035C24.4035 17.7091 17.2592 24.8528 8.4228 24.8528V65.0458C17.2592 65.0458 24.4035 72.1895 24.4035 81.0252H1358.7C1358.7 72.1895 1365.85 65.0458 1374.68 65.0458V24.8528C1365.88 24.8528 1358.74 17.7091 1358.74 8.87337Z" fill="#342F2F"/>
<path d="M17.7856 70.3096C16.9208 61.9627 10.2653 55.3078 1.88007 54.4054V17.7843C10.2277 16.9195 16.8832 10.2645 17.7856 1.87999H1348.55C1349.41 10.2269 1356.07 16.8819 1364.45 17.7843V54.4054C1356.11 55.2702 1349.45 61.9251 1348.55 70.3096H17.7856Z" fill="#FDE6D2"/>
<path d="M1346.89 3.75987C1348.44 11.6556 1354.64 17.8594 1362.54 19.401V52.7886C1354.64 54.3302 1348.44 60.5339 1346.89 68.4296H19.4025C17.8608 60.5339 11.6565 54.3302 3.76017 52.7886V19.401C11.6565 17.8594 17.8608 11.6556 19.4025 3.75987H1346.89ZM1350.32 0H15.9807C15.9807 8.83569 8.8364 15.9794 0 15.9794V56.1725C8.8364 56.1725 15.9807 63.3162 15.9807 72.1519H1350.28C1350.28 63.3162 1357.42 56.1725 1366.26 56.1725V16.0171C1357.46 16.0171 1350.32 8.83569 1350.32 0Z" fill="#342F2F"/>
</svg>
