<svg width="232" height="95" viewBox="0 0 232 95" fill="none" xmlns="http://www.w3.org/2000/svg">
<path d="M223.797 4.99097H13.6459C9.16129 4.99097 5.53168 8.62079 5.53168 13.1057V86.3304C5.53168 90.8153 9.16129 94.4451 13.6459 94.4451H223.797C228.282 94.4451 231.911 90.8153 231.911 86.3304V13.1057C231.911 8.63824 228.282 4.99097 223.797 4.99097Z" fill="#342F2F"/>
<path d="M8.11427 88.5816C4.11821 88.5816 0.872498 85.3357 0.872498 81.3394V8.11475C0.872498 4.11846 4.11821 0.872559 8.11427 0.872559H218.265C222.261 0.872559 225.507 4.11846 225.507 8.11475V81.3394C225.507 85.3357 222.261 88.5816 218.265 88.5816H8.11427Z" fill="#FFD293"/>
<path d="M218.265 1.74511C221.773 1.74511 224.634 4.60708 224.634 8.11475V81.3394C224.634 84.8471 221.773 87.7091 218.265 87.7091H8.11427C4.60681 87.7091 1.745 84.8471 1.745 81.3394V8.11475C1.745 4.60708 4.60681 1.74511 8.11427 1.74511H218.265ZM218.265 0H8.11427C3.62961 0 0 3.62982 0 8.11475V81.3394C0 85.8243 3.62961 89.4542 8.11427 89.4542H218.265C222.75 89.4542 226.379 85.8243 226.379 81.3394V8.11475C226.379 3.62982 222.75 0 218.265 0Z" fill="#342F2F"/>
<path d="M22.6327 82.7355C22.1965 76.7149 17.3802 71.8809 11.3425 71.4447V18.1142C17.3628 17.6779 22.1965 12.8614 22.6327 6.82336H203.869C204.305 12.844 209.121 17.6779 215.159 18.1142V71.4447C209.139 71.8809 204.305 76.6974 203.869 82.7355H22.6327Z" fill="#FDE6D2"/>
<path d="M203.084 7.69591C203.869 13.5071 208.476 18.1142 214.287 18.8995V70.6594C208.476 71.4447 203.869 76.0518 203.084 81.863H23.418C22.6327 76.0518 18.0259 71.4447 12.215 70.6594V18.8995C18.0259 18.1142 22.6327 13.5071 23.418 7.69591H203.084ZM204.706 5.95081H21.7951C21.7951 12.1983 16.7346 17.2765 10.47 17.2765V72.2998C16.7171 72.2998 21.7951 77.3606 21.7951 83.6255H204.724C204.724 77.378 209.784 72.2998 216.049 72.2998V17.2765C209.784 17.2765 204.706 12.1983 204.706 5.95081Z" fill="#342F2F"/>
<path d="M212.542 82.7354C213.987 82.7354 215.159 81.5635 215.159 80.1178C215.159 78.6721 213.987 77.5001 212.542 77.5001C211.096 77.5001 209.924 78.6721 209.924 80.1178C209.924 81.5635 211.096 82.7354 212.542 82.7354Z" fill="#FDE6D2"/>
<path d="M212.542 78.3727C213.501 78.3727 214.287 79.158 214.287 80.1178C214.287 81.0776 213.501 81.8629 212.542 81.8629C211.582 81.8629 210.797 81.0776 210.797 80.1178C210.797 79.158 211.582 78.3727 212.542 78.3727ZM212.542 76.6276C210.622 76.6276 209.052 78.1982 209.052 80.1178C209.052 82.0374 210.622 83.608 212.542 83.608C214.461 83.608 216.032 82.0374 216.032 80.1178C216.032 78.1982 214.461 76.6276 212.542 76.6276Z" fill="#342F2F"/>
<path d="M212.542 12.0587C213.987 12.0587 215.159 10.8867 215.159 9.44102C215.159 7.99533 213.987 6.82336 212.542 6.82336C211.096 6.82336 209.924 7.99533 209.924 9.44102C209.924 10.8867 211.096 12.0587 212.542 12.0587Z" fill="#FDE6D2"/>
<path d="M212.542 7.69591C213.501 7.69591 214.287 8.48121 214.287 9.44102C214.287 10.4008 213.501 11.1861 212.542 11.1861C211.582 11.1861 210.797 10.4008 210.797 9.44102C210.797 8.48121 211.582 7.69591 212.542 7.69591ZM212.542 5.95081C210.622 5.95081 209.052 7.5214 209.052 9.44102C209.052 11.3606 210.622 12.9312 212.542 12.9312C214.461 12.9312 216.032 11.3606 216.032 9.44102C216.032 7.5214 214.461 5.95081 212.542 5.95081Z" fill="#342F2F"/>
<path d="M13.96 82.7354C15.4056 82.7354 16.5775 81.5635 16.5775 80.1178C16.5775 78.6721 15.4056 77.5001 13.96 77.5001C12.5144 77.5001 11.3425 78.6721 11.3425 80.1178C11.3425 81.5635 12.5144 82.7354 13.96 82.7354Z" fill="#FDE6D2"/>
<path d="M13.96 78.3727C14.9198 78.3727 15.705 79.158 15.705 80.1178C15.705 81.0776 14.9198 81.8629 13.96 81.8629C13.0003 81.8629 12.215 81.0776 12.215 80.1178C12.215 79.158 13.0003 78.3727 13.96 78.3727ZM13.96 76.6276C12.0405 76.6276 10.47 78.1982 10.47 80.1178C10.47 82.0374 12.0405 83.608 13.96 83.608C15.8795 83.608 17.4501 82.0374 17.4501 80.1178C17.4501 78.1982 15.8795 76.6276 13.96 76.6276Z" fill="#342F2F"/>
<path d="M13.96 12.0587C15.4056 12.0587 16.5775 10.8867 16.5775 9.44102C16.5775 7.99533 15.4056 6.82336 13.96 6.82336C12.5144 6.82336 11.3425 7.99533 11.3425 9.44102C11.3425 10.8867 12.5144 12.0587 13.96 12.0587Z" fill="#FDE6D2"/>
<path d="M13.96 7.69591C14.9198 7.69591 15.705 8.48121 15.705 9.44102C15.705 10.4008 14.9198 11.1861 13.96 11.1861C13.0003 11.1861 12.215 10.4008 12.215 9.44102C12.215 8.48121 13.0003 7.69591 13.96 7.69591ZM13.96 5.95081C12.0405 5.95081 10.47 7.5214 10.47 9.44102C10.47 11.3606 12.0405 12.9312 13.96 12.9312C15.8795 12.9312 17.4501 11.3606 17.4501 9.44102C17.4501 7.5214 15.8795 5.95081 13.96 5.95081Z" fill="#342F2F"/>
</svg>
