<svg width="933" height="380" viewBox="0 0 933 380" fill="none" xmlns="http://www.w3.org/2000/svg">
<path d="M900.325 20.0786H54.897C36.8554 20.0786 22.2537 34.6812 22.2537 52.7239V347.304C22.2537 365.346 36.8554 379.949 54.897 379.949H900.325C918.367 379.949 932.969 365.346 932.969 347.304V52.7239C932.969 34.7514 918.367 20.0786 900.325 20.0786Z" fill="#342F2F"/>
<path d="M32.6434 356.36C16.5674 356.36 3.51003 343.302 3.51003 327.225V32.6453C3.51003 16.5684 16.5674 3.51024 32.6434 3.51024H878.072C894.148 3.51024 907.205 16.5684 907.205 32.6453V327.225C907.205 343.302 894.148 356.36 878.072 356.36H32.6434Z" fill="#FFD293"/>
<path d="M878.072 7.02049C892.182 7.02049 903.695 18.5341 903.695 32.6453V327.225C903.695 341.336 892.182 352.85 878.072 352.85H32.6434C18.533 352.85 7.02008 341.336 7.02008 327.225V32.6453C7.02008 18.5341 18.533 7.02049 32.6434 7.02049H878.072ZM878.072 0H32.6434C14.6018 0 0 14.6026 0 32.6453V327.225C0 345.268 14.6018 359.87 32.6434 359.87H878.072C896.113 359.87 910.715 345.268 910.715 327.225V32.6453C910.715 14.6026 896.113 0 878.072 0Z" fill="#342F2F"/>
<path d="M91.0505 332.842C89.2955 308.621 69.92 289.174 45.6306 287.419V72.8727C69.8498 71.1176 89.2955 51.741 91.0505 27.4501H820.156C821.911 51.6708 841.287 71.1176 865.576 72.8727V287.419C841.357 289.174 821.911 308.551 820.156 332.842H91.0505Z" fill="#FDE6D2"/>
<path d="M816.997 30.9604C820.156 54.3386 838.689 72.8727 862.066 76.032V284.26C838.689 287.419 820.156 305.953 816.997 329.331H94.2095C91.0505 305.953 72.5175 287.419 49.1406 284.26V76.032C72.5175 72.8727 91.0505 54.3386 94.2095 30.9604H816.997ZM823.526 23.9399H87.6808C87.6808 49.0732 67.3226 69.5029 42.1205 69.5029V290.859C67.2524 290.859 87.6808 311.218 87.6808 336.422H823.596C823.596 311.289 843.954 290.859 869.156 290.859V69.5029C843.954 69.5029 823.526 49.0732 823.526 23.9399Z" fill="#342F2F"/>
<path d="M855.046 332.842C860.861 332.842 865.576 328.127 865.576 322.311C865.576 316.495 860.861 311.78 855.046 311.78C849.23 311.78 844.516 316.495 844.516 322.311C844.516 328.127 849.23 332.842 855.046 332.842Z" fill="#F8A685"/>
<path d="M855.046 315.29C858.907 315.29 862.066 318.45 862.066 322.311C862.066 326.172 858.907 329.331 855.046 329.331C851.185 329.331 848.026 326.172 848.026 322.311C848.026 318.45 851.185 315.29 855.046 315.29ZM855.046 308.27C847.324 308.27 841.006 314.588 841.006 322.311C841.006 330.033 847.324 336.352 855.046 336.352C862.768 336.352 869.086 330.033 869.086 322.311C869.086 314.588 862.768 308.27 855.046 308.27Z" fill="#342F2F"/>
<path d="M855.046 48.5116C860.861 48.5116 865.576 43.7968 865.576 37.9809C865.576 32.1649 860.861 27.4501 855.046 27.4501C849.23 27.4501 844.516 32.1649 844.516 37.9809C844.516 43.7968 849.23 48.5116 855.046 48.5116Z" fill="#F8A685"/>
<path d="M855.046 30.9604C858.907 30.9604 862.066 34.1196 862.066 37.9809C862.066 41.8421 858.907 45.0014 855.046 45.0014C851.185 45.0014 848.026 41.8421 848.026 37.9809C848.026 34.1196 851.185 30.9604 855.046 30.9604ZM855.046 23.9399C847.324 23.9399 841.006 30.2583 841.006 37.9809C841.006 45.7034 847.324 52.0219 855.046 52.0219C862.768 52.0219 869.086 45.7034 869.086 37.9809C869.086 30.2583 862.768 23.9399 855.046 23.9399Z" fill="#342F2F"/>
<path d="M56.1607 332.842C61.9763 332.842 66.6908 328.127 66.6908 322.311C66.6908 316.495 61.9763 311.78 56.1607 311.78C50.3451 311.78 45.6306 316.495 45.6306 322.311C45.6306 328.127 50.3451 332.842 56.1607 332.842Z" fill="#F8A685"/>
<path d="M56.1607 315.29C60.0217 315.29 63.1808 318.45 63.1808 322.311C63.1808 326.172 60.0217 329.331 56.1607 329.331C52.2996 329.331 49.1406 326.172 49.1406 322.311C49.1406 318.45 52.2996 315.29 56.1607 315.29ZM56.1607 308.27C48.4386 308.27 42.1205 314.588 42.1205 322.311C42.1205 330.033 48.4386 336.352 56.1607 336.352C63.8828 336.352 70.2008 330.033 70.2008 322.311C70.2008 314.588 63.8828 308.27 56.1607 308.27Z" fill="#342F2F"/>
<path d="M56.1607 48.5116C61.9763 48.5116 66.6908 43.7968 66.6908 37.9809C66.6908 32.1649 61.9763 27.4501 56.1607 27.4501C50.3451 27.4501 45.6306 32.1649 45.6306 37.9809C45.6306 43.7968 50.3451 48.5116 56.1607 48.5116Z" fill="#F8A685"/>
<path d="M56.1607 30.9604C60.0217 30.9604 63.1808 34.1196 63.1808 37.9809C63.1808 41.8421 60.0217 45.0014 56.1607 45.0014C52.2996 45.0014 49.1406 41.8421 49.1406 37.9809C49.1406 34.1196 52.2996 30.9604 56.1607 30.9604ZM56.1607 23.9399C48.4386 23.9399 42.1205 30.2583 42.1205 37.9809C42.1205 45.7034 48.4386 52.0219 56.1607 52.0219C63.8828 52.0219 70.2008 45.7034 70.2008 37.9809C70.2008 30.2583 63.8828 23.9399 56.1607 23.9399Z" fill="#342F2F"/>
</svg>
